<?xml version="1.0" encoding="UTF-8" standalone="no"?>
<!DOCTYPE svg PUBLIC "-//W3C//DTD SVG 1.1//EN" "http://www.w3.org/Graphics/SVG/1.1/DTD/svg11.dtd">
<svg width="100%" height="100%" viewBox="0 0 48 60" version="1.1" xmlns="http://www.w3.org/2000/svg" xmlns:xlink="http://www.w3.org/1999/xlink" xml:space="preserve" xmlns:serif="http://www.serif.com/" style="fill-rule:evenodd;clip-rule:evenodd;stroke-linejoin:round;stroke-miterlimit:2;">
    <g>
        <g transform="matrix(1,0,0,1,0,5.99995)">
            <path d="M4.828,24L14.414,14.414C14.776,14.041 14.978,13.541 14.978,13.022C14.978,11.924 14.076,11.022 12.978,11.022C12.459,11.022 11.959,11.224 11.586,11.586L0.586,22.586C0.211,22.961 0,23.47 0,24C0,24.53 0.211,25.039 0.586,25.414L11.586,36.414C11.959,36.776 12.459,36.979 12.978,36.979C14.076,36.979 14.978,36.076 14.978,34.979C14.978,34.459 14.776,33.959 14.414,33.586L4.828,24Z" style="fill:rgb(233,195,73);fill-rule:nonzero;"/>
        </g>
        <g transform="matrix(1,0,0,1,0,5.99995)">
            <path d="M46,22L17.828,22L25.414,14.414C25.776,14.041 25.978,13.541 25.978,13.022C25.978,11.924 25.076,11.022 23.978,11.022C23.459,11.022 22.959,11.224 22.586,11.586L11.587,22.585C11.494,22.678 11.41,22.781 11.337,22.891C11.304,22.94 11.282,22.993 11.254,23.044C11.176,23.164 11.12,23.297 11.09,23.437C11.073,23.494 11.051,23.549 11.039,23.608C10.988,23.867 10.988,24.133 11.039,24.392C11.051,24.451 11.073,24.506 11.09,24.563C11.12,24.703 11.176,24.836 11.254,24.956C11.282,25.007 11.304,25.06 11.337,25.109C11.41,25.219 11.494,25.322 11.587,25.415L22.586,36.414C22.959,36.776 23.459,36.979 23.978,36.979C25.076,36.979 25.978,36.076 25.978,34.979C25.978,34.459 25.776,33.959 25.414,33.586L17.828,26L46,26C47.097,26 48,25.097 48,24C48,22.903 47.097,22 46,22Z" style="fill:rgb(233,195,73);fill-rule:nonzero;"/>
        </g>
    </g>
</svg>
