<?xml version="1.0" encoding="UTF-8" standalone="no"?>
<!DOCTYPE svg PUBLIC "-//W3C//DTD SVG 1.1//EN" "http://www.w3.org/Graphics/SVG/1.1/DTD/svg11.dtd">
<svg width="100%" height="100%" viewBox="0 0 149 327" version="1.1" xmlns="http://www.w3.org/2000/svg" xmlns:xlink="http://www.w3.org/1999/xlink" xml:space="preserve" xmlns:serif="http://www.serif.com/" style="fill-rule:evenodd;clip-rule:evenodd;stroke-linejoin:round;stroke-miterlimit:2;">
    <g transform="matrix(1,0,0,1,-178.899,-86.3695)">
        <path d="M196.401,380.303C196.401,380.303 196.4,380.303 196.399,380.303C186.799,380.303 178.899,372.403 178.899,362.803C178.899,358.163 180.745,353.708 184.026,350.428L284.79,249.666L184.026,148.904C180.745,145.623 178.9,141.169 178.9,136.529C178.9,126.928 186.8,119.027 196.401,119.027C201.041,119.027 205.496,120.872 208.777,124.153L321.914,237.291C328.702,244.08 328.702,255.252 321.914,262.042L208.777,375.179C205.499,378.463 201.042,380.309 196.401,380.303Z" style="fill:rgb(164,211,244);fill-rule:nonzero;"/>
    </g>
</svg>
